<svg xmlns="http://www.w3.org/2000/svg" viewBox="0 0 43.23 50.65"><defs><style>.cls-1{fill:#ccc;}</style></defs><title>agriculture</title><g id="图层_2" data-name="图层 2"><g id="图层_1-2" data-name="图层 1"><path class="cls-1" d="M42.81,22.24l-.19-.41-.43-.1a47.77,47.77,0,0,0-12.11-1l1.58-7.28a6,6,0,0,1,4.92,1,5.15,5.15,0,0,1,2.09,3.79h1.84A6.92,6.92,0,0,0,37.71,13a7.72,7.72,0,0,0-5.63-1.51l2.2-10.15L29.65,0l-.26.89L27.48,7.48a5.91,5.91,0,0,0-3-.78A6.36,6.36,0,0,0,19,9.77a7.59,7.59,0,0,0-4.65-1.58,8.78,8.78,0,0,0-8,5.72,5.06,5.06,0,0,0-.67-.17A5.38,5.38,0,0,0,1.54,15,4.4,4.4,0,0,0,0,17.17H2a3.07,3.07,0,0,1,.69-.77,3.69,3.69,0,0,1,2.72-.84,3.46,3.46,0,0,1,2.16.91C7.73,14.74,9.3,10,14.38,10a6.22,6.22,0,0,1,5.33,3.17C20,11.34,21.2,8.55,24.5,8.55a4,4,0,0,1,2.44.78l-2.12,7.32a6.27,6.27,0,0,0-5-2.29,6.24,6.24,0,0,0-5,2.42,4.91,4.91,0,0,0-2.05-.45,4.28,4.28,0,0,0-4.24,3h2a2.63,2.63,0,0,1,2.26-1.13,3.47,3.47,0,0,1,2.72,1.37,4.61,4.61,0,0,1,4.38-3.34c2.27,0,4.12,1.49,4.12,3.32v0l-.46,1.58a8.53,8.53,0,0,0-3.24,2.09c-.12.14-.23.27-.33.41h0L6.5,28.51l-.82.3L7,33.26,22.86,29a11.58,11.58,0,0,0,1.26.34h0l2.5,3.5L25.3,36.36H1.83v1.85H24.61L19.94,50.65H33.76L34.58,44l2.11,3,3.88-2.63L37,38.21H42.3V36.36H35.94l-.34-.58.93-7.51a37.23,37.23,0,0,0,5.66-.85l.5-.12.16-.49A6.72,6.72,0,0,0,42.81,22.24ZM30.9,2.3l1.21.36c-.32,1.48-3.77,17.39-4,18.52a3.39,3.39,0,0,1-2.5-.55C25.86,19.66,30.44,3.88,30.9,2.3ZM8.28,31C8.14,30.56,8.09,30.4,8,30l11.36-4.14a3.18,3.18,0,0,0,1.19,1.92Zm13.48-4.64a1.49,1.49,0,0,1-.63-.9v0a1.67,1.67,0,0,1,.52-1,7.49,7.49,0,0,1,3.49-1.92,5.42,5.42,0,0,0,2.95.5,3.93,3.93,0,0,1,.37,1.49c0,.1,0,.21,0,.3A5.57,5.57,0,0,1,28.34,26a4.06,4.06,0,0,0-1.36.38h0v0a5.7,5.7,0,0,0-1.67,1.22A7,7,0,0,1,21.76,26.37ZM32.13,48.8H22.6c.48-1.29,3.14-8.35,5.31-14.14L33,41.78C32.56,45.34,32.19,48.26,32.13,48.8Zm6-5-1,.65C36.22,43.12,27,30.2,26.33,29.27a3.19,3.19,0,0,1,2.54-1.4C29.26,28.54,37.33,42.43,38.11,43.76ZM31.33,28.44c1,0,2.14,0,3.33-.05-.15,1.17-.36,2.85-.59,4.75Zm9.9-2.71a47,47,0,0,1-11,.84l-.1-.17a7.51,7.51,0,0,0,.15-2,5.55,5.55,0,0,0-.39-1.85,48.36,48.36,0,0,1,11.36.83,4.45,4.45,0,0,1,.11,1A5.31,5.31,0,0,1,41.23,25.73Z"/></g></g></svg>