<svg xmlns="http://www.w3.org/2000/svg" viewBox="0 0 49.92 48.42"><defs><style>.cls-1{fill:#ccc;}</style></defs><title>art</title><g id="图层_2" data-name="图层 2"><g id="图层_1-2" data-name="图层 1"><path class="cls-1" d="M38.69,26a11.13,11.13,0,0,0-4.44.92L26.21,0l-.88,3L19,24l-5.7-2.57-.23,0L0,22.38v14L6.94,42l14.92-1.61V37.14a31.71,31.71,0,0,0,4.35.36c.07,0,.54,0,1.26,0A11.23,11.23,0,1,0,38.69,26ZM6.3,39.13,1.85,35.46V24.83L6.3,27.37ZM4,24l9-.62,4.21,1.89-9.76.67ZM20,38.77,8.15,40.06V27.69L20,26.88Zm1.85-3.5v-10l-1.14-.51L26.21,6.44c1,3.19,4.24,14.17,6.38,21.33a11.23,11.23,0,0,0-5,7.83c-.82,0-1.35,0-1.37,0A31,31,0,0,1,21.86,35.27ZM38.69,46.58a9.39,9.39,0,1,1,9.39-9.39A9.4,9.4,0,0,1,38.69,46.58Z"/></g></g></svg>