<svg xmlns="http://www.w3.org/2000/svg" viewBox="0 0 47.84 45.1"><defs><style>.cls-1{fill:#ccc;}</style></defs><title>business</title><g id="图层_2" data-name="图层 2"><g id="图层_1-2" data-name="图层 1"><path class="cls-1" d="M24.39,18.49a5.16,5.16,0,0,0-3.78,1.18,5.08,5.08,0,0,0-1.83,3.5,5.16,5.16,0,1,0,5.61-4.68Zm2.84,5.45a3.32,3.32,0,0,1-6.62-.6,3.24,3.24,0,0,1,1.19-2.25,3.32,3.32,0,0,1,5.45,2.54C27.25,23.73,27.24,23.84,27.23,23.94Z"/><path class="cls-1" d="M47.84,23.27c0-2.86-2.68-5.43-7.42-7.24q-1.16-.44-2.43-.81c.89-4.09.86-7.6-.19-10A3.62,3.62,0,0,0,38,4.38,4,4,0,1,0,36.5,7.14a17.84,17.84,0,0,1-.32,7.61,46.75,46.75,0,0,0-6.73-1A48.19,48.19,0,0,0,25.1,8.59a27.91,27.91,0,0,1,3.51-2.94L27.55,4.14A30,30,0,0,0,23.77,7.3a19.35,19.35,0,0,0-7.65-4.69,5.74,5.74,0,0,0-4.45.45c-2.45,1.46-3.36,5-2.56,10,.13.82.3,1.66.52,2.52-.85.27-1.65.56-2.41.88C2.52,18.44,0,21.09,0,23.94a5.28,5.28,0,0,0,1.3,3.3,3.9,3.9,0,0,0-.21,1,4,4,0,1,0,1.3-2.61,3.15,3.15,0,0,1-.54-1.69c0-2,2.18-4.09,6.07-5.71.7-.29,1.43-.55,2.2-.8a46.73,46.73,0,0,0,2.47,6.37C9.66,30.49,8.51,36.86,9.65,40.86a5.72,5.72,0,0,0,2.6,3.63c2.49,1.39,6,.39,10-2.81q1-.78,1.92-1.71a18.92,18.92,0,0,0,7.57,4.62A5.78,5.78,0,0,0,36,44.27a3.65,3.65,0,0,0,1,.23,4,4,0,1,0-3.63-4.36A4,4,0,0,0,34.14,43a5,5,0,0,1-2-.15,17.08,17.08,0,0,1-6.73-4.14,48.23,48.23,0,0,0,4.28-5.32,48.56,48.56,0,0,0,6.77-1.25,29,29,0,0,1,.63,2.85l1.82-.3a31.29,31.29,0,0,0-.68-3.07A19,19,0,0,0,46,27.34,5.72,5.72,0,0,0,47.84,23.27ZM36.14,4.21a2.16,2.16,0,1,1,0-.2A1.34,1.34,0,0,1,36.14,4.21ZM5.28,26.42a2.16,2.16,0,0,1,2,2.15v.2a2.17,2.17,0,1,1-2-2.35ZM37.51,38.34a2.17,2.17,0,0,1,2,2.16c0,.06,0,.13,0,.2a2.17,2.17,0,1,1-2-2.36Zm-1.77-21.8a45.08,45.08,0,0,1-1.58,4.72c-.5-1-1-1.91-1.57-2.83s-1.14-1.85-1.74-2.73A43.23,43.23,0,0,1,35.74,16.54ZM23.8,9.91A43.45,43.45,0,0,1,27,13.56c-1.06-.05-2.13-.06-3.22-.05s-2.1.06-3.14.13C21.66,12.32,22.72,11.06,23.8,9.91Zm-12.87,2.9c-.66-4.16,0-7.13,1.68-8.17a4,4,0,0,1,3.05-.24,17.44,17.44,0,0,1,6.81,4.22,51.35,51.35,0,0,0-4.3,5.24A48,48,0,0,0,11.4,15.1C11.21,14.32,11.05,13.55,10.93,12.81Zm1,4.07a42.88,42.88,0,0,1,4.9-1c-.59.91-1.16,1.84-1.68,2.78s-1,1.92-1.5,2.87A43.1,43.1,0,0,1,11.89,16.88Zm9.18,23.37c-3.27,2.65-6.16,3.61-7.92,2.63a4,4,0,0,1-1.73-2.53c-.93-3.28,0-8.64,2.26-14.39.49.94,1,1.88,1.57,2.81S16.39,30.62,17,31.5c-1.08-.12-2.14-.27-3.14-.45l-.32,1.82c1.53.27,3.18.48,4.86.62a48,48,0,0,0,4.44,5.21C22.24,39.25,21.65,39.77,21.07,40.25Zm3.05-2.87a44.08,44.08,0,0,1-3.29-3.74c1.1,0,2.18.07,3.23,0s2.18-.06,3.23-.13A41.2,41.2,0,0,1,24.12,37.38Zm4.57-5.79c-1.51.15-3.07.24-4.65.26s-3.09,0-4.66-.14c-.88-1.23-1.74-2.53-2.54-3.88s-1.55-2.73-2.22-4.09c.63-1.38,1.33-2.78,2.1-4.16s1.59-2.68,2.49-4c1.49-.14,3-.23,4.59-.25s3.14,0,4.65.12q1.34,1.86,2.55,3.9c.79,1.32,1.53,2.7,2.21,4.1-.62,1.38-1.32,2.77-2.09,4.15S29.53,30.33,28.69,31.59Zm2.39-.29c.57-.9,1.12-1.82,1.65-2.77s1-1.9,1.49-2.85c.68,1.57,1.27,3.13,1.75,4.63A44,44,0,0,1,31.08,31.3Zm13.59-5.25a17,17,0,0,1-6.93,3.75,52.42,52.42,0,0,0-2.49-6.33A47.62,47.62,0,0,0,37.55,17c.77.23,1.51.48,2.21.74,3.93,1.51,6.2,3.53,6.23,5.54A3.9,3.9,0,0,1,44.67,26.05Z"/></g></g></svg>