<svg xmlns="http://www.w3.org/2000/svg" viewBox="0 0 57.38 44.89"><defs><style>.cls-1{fill:#ccc;}</style></defs><title>CS</title><g id="图层_2" data-name="图层 2"><g id="图层_1-2" data-name="图层 1"><path class="cls-1" d="M19.32,38v3.14H38.06V38Zm.59,2.56v-2H37.47v2Z"/><path class="cls-1" d="M18.73,37.46v4.31H38.64V37.46ZM37.47,40.6H19.91v-2H37.47Z"/><path class="cls-1" d="M16.2,41.18V44.3h25V41.18Zm24.4,2.54H16.78V41.77H40.6Z"/><path class="cls-1" d="M15.61,40.6v4.29H41.77V40.6Zm25,3.12H16.78V41.77H40.6Z"/><path class="cls-1" d="M0,31.19v4.49a2.93,2.93,0,0,0,2.93,2.93H54.45a2.93,2.93,0,0,0,2.93-2.93V31.19Zm56.21,4.49a1.76,1.76,0,0,1-1.76,1.76H2.93a1.76,1.76,0,0,1-1.76-1.76V32.36h55Z"/><path class="cls-1" d="M54.45,0H2.93A2.93,2.93,0,0,0,0,2.93V32.36H57.38V2.93A2.93,2.93,0,0,0,54.45,0ZM1.17,31.19V2.93A1.76,1.76,0,0,1,2.93,1.17H54.45a1.76,1.76,0,0,1,1.76,1.76V31.19Z"/><path class="cls-1" d="M40.13,19.36c-.09.32-.18.62-.29.92A12.32,12.32,0,0,1,39,22.12a13.11,13.11,0,0,1-.77,1.17,11.89,11.89,0,0,1-6.69,4.46,11.51,11.51,0,0,1-2.28.34h-.59l-.58,0h0a12.12,12.12,0,0,1-2.35-.36A11.87,11.87,0,0,1,22,26.06a11.71,11.71,0,0,1-2.89-2.77,9.83,9.83,0,0,1-.77-1.17,11.69,11.69,0,0,1-1.56-5.33,5.72,5.72,0,0,1,0-.59,5.62,5.62,0,0,1,0-.58,11.65,11.65,0,0,1,1.56-5.33,10.71,10.71,0,0,1,.77-1.17,12,12,0,0,1,6.4-4.4h0A11.17,11.17,0,0,1,28,4.32h.07l.58,0,.59,0a12.39,12.39,0,0,1,2.29.33h0a12,12,0,0,1,6.67,4.47c.28.38.53.77.77,1.17a12.4,12.4,0,0,1,1,2.23c.07.22.14.45.2.69s.11.45.15.67l1.27.44q0-.33-.12-.66c0-.22-.09-.45-.15-.67A13.09,13.09,0,0,0,29.63,3.17c-.32,0-.65,0-1,0A13.08,13.08,0,1,0,40.41,21.91c.13-.25.24-.51.35-.78s.22-.56.31-.85l-.7-2C40.3,18.66,40.22,19,40.13,19.36Z"/><rect class="cls-1" x="28.07" y="3.72" width="1.17" height="24.97"/><path class="cls-1" d="M27.55,29.18A15.4,15.4,0,0,1,20.76,15.7c.15-5.35,2.76-10.14,6.82-12.49l.58,1c-3.71,2.15-6.1,6.56-6.23,11.51A14.23,14.23,0,0,0,28.19,28.2Z"/><path class="cls-1" d="M29.6,29.14l-.58-1c3.71-2.15,6.1-6.56,6.23-11.51A14.2,14.2,0,0,0,29,4.15l.64-1a15.4,15.4,0,0,1,6.79,13.48C36.27,22,33.66,26.79,29.6,29.14Z"/><path class="cls-1" d="M27.55,29.18A15.4,15.4,0,0,1,20.76,15.7c.15-5.35,2.76-10.14,6.82-12.49l.58,1c-3.71,2.15-6.1,6.56-6.23,11.51A14.23,14.23,0,0,0,28.19,28.2Z"/><path class="cls-1" d="M29.6,29.14l-.58-1c3.71-2.15,6.1-6.56,6.23-11.51A14.2,14.2,0,0,0,29,4.15l.64-1a15.4,15.4,0,0,1,6.79,13.48C36.27,22,33.66,26.79,29.6,29.14Z"/><polygon class="cls-1" points="39.83 16.79 16.16 16.79 16.16 15.62 39.41 15.62 39.83 16.79"/><rect class="cls-1" x="17.83" y="9.12" width="21.49" height="1.17"/><rect class="cls-1" x="17.83" y="22.12" width="21.49" height="1.17"/><path class="cls-1" d="M45.66,18.08l2.21-2.21-6.4-2.21-1.3-.45-2.55-.88,1.18,3.29.41,1.17.92,2.57.63,1.77.48,1.37,2.21-2.21,3.27,3.28,2.21-2.21Zm-2.21,1.39-2,2-.42-1.15-.7-2-.53-1.5-.43-1.17-.83-2.34,1.74.6,1.27.44,5.2,1.8-1.95,2,3.27,3.28-1.39,1.38Z"/><path class="cls-1" d="M46.49,18.08l2.45-2.45L41.32,13,40,12.52l-3.31-1.15,1.51,4.25.42,1.17,1.25,3.49.57,1.63L41,23.56l2.45-2.44,3.27,3.28,3.05-3Zm-7.08-2.46-.83-2.34,1.74.6,1.27.44,5.2,1.8-1.95,2,3.27,3.28-1.39,1.38-3.27-3.27-2,2-.42-1.15-.7-2-.53-1.5Z"/><rect class="cls-1" x="3.71" y="6.25" width="9.37" height="1.17"/><rect class="cls-1" x="44.25" y="6.25" width="9.37" height="1.17"/><rect class="cls-1" x="47.43" y="9.37" width="6.19" height="1.17"/><rect class="cls-1" x="3.71" y="9.37" width="9.37" height="1.17"/><rect class="cls-1" x="3.71" y="12.49" width="9.37" height="1.17"/><rect class="cls-1" x="3.71" y="15.62" width="6.25" height="1.17"/><rect class="cls-1" x="3.71" y="21.93" width="3.12" height="1.17"/><rect class="cls-1" x="3.71" y="24.98" width="6.25" height="1.17"/></g></g></svg>