<svg xmlns="http://www.w3.org/2000/svg" viewBox="0 0 32.75 47.25"><defs><style>.cls-1{fill:#88b13e;}</style></defs><title>education</title><g id="图层_2" data-name="图层 2"><g id="图层_1-2" data-name="图层 1"><path class="cls-1" d="M30.07,17.66h-.83V1.82H20.55V17.66H18.16V6.37H13.62V17.66H11.41V12.34c0-3.69-1.93-5-3.74-5s-3.75,1.32-3.75,5v5.32H2.68A2.68,2.68,0,0,0,0,20.33v5.9a2.68,2.68,0,0,0,1.39,2.35V44.76a2.48,2.48,0,0,0,2.48,2.49h25a2.49,2.49,0,0,0,2.49-2.49V28.58a2.68,2.68,0,0,0,1.39-2.35v-5.9A2.68,2.68,0,0,0,30.07,17.66Zm-7.67-14h5V5H25.59V6.88H27.4V8.05H23.74V9.9H27.4v1.17H25.59v1.84H27.4v1.17H23.74v1.85H27.4v1.43h-5ZM15.47,8.21h.85v9.45h-.85Zm-9.7,4.13c0-1.18.25-3.16,1.9-3.16s1.89,2,1.89,3.16v5.32h-1V11.33a.92.92,0,1,0-1.84,0v6.33H5.77ZM8.51,23a.89.89,0,1,1-.89-.89A.89.89,0,0,1,8.51,23Zm21,21.76a.63.63,0,0,1-.64.64h-25a.64.64,0,0,1-.64-.64V28.91H4.57v2.34H6.42V28.91H26.28v2.34h1.84V28.91h1.39ZM30.9,26.23a.84.84,0,0,1-.83.84H2.68a.84.84,0,0,1-.83-.84v-5.9a.83.83,0,0,1,.83-.83h4v.93a2.74,2.74,0,1,0,1.84,0V19.5H30.07a.83.83,0,0,1,.83.83Z"/><path class="cls-1" d="M18.28,1.8A1.81,1.81,0,0,0,16.48,0h-1a1.81,1.81,0,0,0-1.81,1.8V5.58h4.65ZM16.44,3.74h-1V1.85h1Z"/><rect class="cls-1" x="4.57" y="33.83" width="1.85" height="3.45"/><rect class="cls-1" x="11.44" y="42.14" width="3.63" height="1.84"/><rect class="cls-1" x="17.65" y="42.14" width="3.63" height="1.84"/><rect class="cls-1" x="26.28" y="33.83" width="1.85" height="3.45"/><polygon class="cls-1" points="6.42 39.86 4.57 39.86 4.57 43.97 8.9 43.99 8.9 42.14 6.42 42.14 6.42 39.86"/><polygon class="cls-1" points="26.28 42.14 23.85 42.14 23.85 43.99 28.12 43.97 28.12 39.86 26.28 39.86 26.28 42.14"/></g></g></svg>