<svg xmlns="http://www.w3.org/2000/svg" viewBox="0 0 41.87 60.64"><defs><style>.cls-1{fill:#88b13e;}</style></defs><title>engineer</title><g id="图层_2" data-name="图层 2"><g id="图层_1-2" data-name="图层 1"><path class="cls-1" d="M25.27,42.65c.56-.59,2.59-2.68,2.59-2.68l-2.41-3.72-.69.26-2.87,1.05-.42-.35a6.64,6.64,0,0,0-1.72-1.15c0-.82-.07-3.64-.07-3.64L19,32.24c-.53-.15-2.69-.61-2.94-.66l-.72-.16-.31.67-1.27,2.75a11.18,11.18,0,0,0-2.6.52L8.52,32.77l-.61.38c-.46.28-2.4,1.56-2.48,1.62l-.61.4s1,2.79,1.28,3.52a10.94,10.94,0,0,0-1.47,2.2l-3.71,0L0,45.27l.67.31,2.72,1.26a11.49,11.49,0,0,0,.51,2.59L1.29,52.11l2.42,3.71.69-.25,2.84-1A11,11,0,0,0,9.43,56c0,.82.05,3.73.05,3.73l4.34.92.3-.67,1.26-2.74a10.59,10.59,0,0,0,2.6-.52l2.67,2.59.61-.38c.45-.28,2.41-1.56,2.49-1.62l.62-.4-1.29-3.51a6,6,0,0,0,1.49-2.21l3.7,0,.91-4.34-3.4-1.59A10.67,10.67,0,0,0,25.27,42.65Zm1.5,6.67-3.59,0s-.11.57-.12.68a5.57,5.57,0,0,1-1.7,2.48l-.2.2-.1.55,1.07,2.9L20.89,57l-2.47-2.41-.57.23a8.75,8.75,0,0,1-3,.62h-.14l-.56.17-1.36,3-1.44-.3c0-.94,0-3.46,0-3.46l-.58-.23a8.62,8.62,0,0,1-2.57-1.7s-.42-.45-.42-.45L4.46,53.58c-.31-.46-.51-.78-.82-1.25l2.41-2.47-.24-.56a8.87,8.87,0,0,1-.59-3V46l-.28-.5-2.83-1.3c.12-.55.19-.91.31-1.45l3.43-.05.23-.57a8.55,8.55,0,0,1,1.71-2.57L8,39.37l.1-.56s-.73-2-1-2.9l1.23-.8,2.48,2.41.56-.24a9,9,0,0,1,3-.62h.14l.13,0,.42-.13,1.38-3,1.43.31c0,.91.06,3.45.06,3.45l.56.23a4.82,4.82,0,0,1,1.79,1.09l1.27,1.05.5-.2,2.67-1,.8,1.25-2.4,2.48.24.56a8.55,8.55,0,0,1,.6,2.93v.36l.31.49,2.82,1.31Z"/><polygon class="cls-1" points="17.86 46.72 17.86 46.72 17.86 46.73 17.86 46.72"/><path class="cls-1" d="M17.39,44.21a3.31,3.31,0,0,0-2.12-1.45,3.35,3.35,0,0,0-3.5,5.1,3.31,3.31,0,0,0,2.12,1.45,3.27,3.27,0,0,0,2.51-.45,3.33,3.33,0,0,0,1.46-2.13,3.43,3.43,0,0,0,.08-.71A3.29,3.29,0,0,0,17.39,44.21Zm-1.34,2.13h0a1.48,1.48,0,0,1-.65,1,1.43,1.43,0,0,1-1.12.2h0a1.5,1.5,0,1,1,.63-2.93,1.48,1.48,0,0,1,1.15,1.77Z"/><path class="cls-1" d="M13.9,49.31h0Z"/><path class="cls-1" d="M41.52,24.61l-.16-.48L40.89,24a22.28,22.28,0,0,0-2.74-.58,5.48,5.48,0,0,0-.23-.56,20,20,0,0,0,1.52-2.35l.25-.42-.22-.45a6.44,6.44,0,0,0-1.07-1.57A6.64,6.64,0,0,0,36.83,17l-.45-.22L36,17a20,20,0,0,0-2.35,1.52c-.18-.09-.37-.16-.56-.24a20.29,20.29,0,0,0-.58-2.73l-.12-.47L31.88,15A6.48,6.48,0,0,0,30,14.61a6.56,6.56,0,0,0-1.88.35l-.46.16-.13.47A22,22,0,0,0,27,18.32c-.19.08-.38.15-.56.24A21,21,0,0,0,24.06,17l-.43-.25-.44.22a6.26,6.26,0,0,0-1.57,1.07,6.27,6.27,0,0,0-1.08,1.58l-.22.44.25.42a21.47,21.47,0,0,0,1.52,2.35c-.08.18-.16.37-.23.56a21.61,21.61,0,0,0-2.73.58l-.48.12-.16.48a6.28,6.28,0,0,0-.35,1.86,6.35,6.35,0,0,0,.35,1.87l.16.47.48.13a21.61,21.61,0,0,0,2.73.58c.07.19.15.38.23.56a22.62,22.62,0,0,0-1.52,2.34l-.25.43.22.44a6.06,6.06,0,0,0,1.08,1.57,6.14,6.14,0,0,0,1.57,1.08l.44.22.43-.25a24.48,24.48,0,0,0,2.34-1.52,5.48,5.48,0,0,0,.56.23,21.61,21.61,0,0,0,.58,2.73l.13.48.47.16a6.35,6.35,0,0,0,1.87.35A6.28,6.28,0,0,0,31.87,38l.47-.16.13-.48a21.61,21.61,0,0,0,.58-2.73c.19-.07.38-.14.57-.23A23.41,23.41,0,0,0,36,35.91l.43.25.45-.22a6.51,6.51,0,0,0,1.57-1.08,6.26,6.26,0,0,0,1.07-1.57l.22-.44-.25-.43a21,21,0,0,0-1.52-2.34,5.48,5.48,0,0,0,.23-.56,21.86,21.86,0,0,0,2.74-.58l.47-.13.16-.47a6.35,6.35,0,0,0,.35-1.87A6.28,6.28,0,0,0,41.52,24.61ZM39.9,27.29a12.67,12.67,0,0,1-2.35.43l-.74,0-.2.71A7.25,7.25,0,0,1,36,29.79l-.36.65.56.49a12.31,12.31,0,0,1,1.36,2,3,3,0,0,1-.49.67,3.64,3.64,0,0,1-.66.49,13.26,13.26,0,0,1-2-1.36L34,32.13l-.65.36a7,7,0,0,1-1.41.58l-.71.21.05.74v0a13.4,13.4,0,0,1-.43,2.3,3.37,3.37,0,0,1-.81.12,3.45,3.45,0,0,1-.82-.12,13.57,13.57,0,0,1-.43-2.3v0l0-.74-.71-.21a7.21,7.21,0,0,1-1.41-.58L26,32.13l-.49.56a13,13,0,0,1-2,1.36,4.17,4.17,0,0,1-.67-.49,3.76,3.76,0,0,1-.49-.67,13,13,0,0,1,1.36-2l.56-.49L24,29.79a7.21,7.21,0,0,1-.58-1.41l-.2-.71-.74,0a12.59,12.59,0,0,1-2.36-.43,2.83,2.83,0,0,1,0-1.63,12.59,12.59,0,0,1,2.36-.43l.74.05.2-.72a7.39,7.39,0,0,1,.58-1.4l.36-.65L23.8,22a12.4,12.4,0,0,1-1.37-2,3.53,3.53,0,0,1,.49-.66,3.14,3.14,0,0,1,.66-.49,12.52,12.52,0,0,1,2,1.36l.49.56.65-.36a6.65,6.65,0,0,1,1.41-.58l.71-.21,0-.74v-.05a13.57,13.57,0,0,1,.43-2.3,2.62,2.62,0,0,1,1.63,0,13.5,13.5,0,0,1,.43,2.29v.06l-.05.74.71.21a6.44,6.44,0,0,1,1.41.58l.65.36.49-.56a12.52,12.52,0,0,1,2-1.36,2.81,2.81,0,0,1,1.15,1.15,12.52,12.52,0,0,1-1.36,2l-.56.49.36.65a6.44,6.44,0,0,1,.58,1.41l.21.71.74-.05a12.67,12.67,0,0,1,2.35.43,3.53,3.53,0,0,1,.13.81A3.52,3.52,0,0,1,39.9,27.29Z"/><path class="cls-1" d="M30,21.34a5.13,5.13,0,1,0,5.12,5.13A5.14,5.14,0,0,0,30,21.34Zm0,8.42a3.29,3.29,0,1,1,3.28-3.29A3.3,3.3,0,0,1,30,29.76Z"/><path class="cls-1" d="M8.64,12.5l.1.48a6.16,6.16,0,0,0,.61,1.74,5.87,5.87,0,0,0,1.2,1.4l.37.33.48-.13a19.68,19.68,0,0,0,2.72-.9l.74.44a20.67,20.67,0,0,0,.58,2.79l.13.48.47.16a6.27,6.27,0,0,0,1.81.34,6.2,6.2,0,0,0,1.81-.34l.47-.16.13-.48a18,18,0,0,0,.58-2.79l.75-.44a19.2,19.2,0,0,0,2.71.9l.48.13.37-.33a5.66,5.66,0,0,0,1.2-1.4A5.86,5.86,0,0,0,27,13l.1-.48-.35-.36a20.24,20.24,0,0,0-2.1-1.87c0-.16,0-.32,0-.45s0-.3,0-.46a20.24,20.24,0,0,0,2.1-1.87l.35-.35L27,6.65a5.86,5.86,0,0,0-.61-1.74,6.06,6.06,0,0,0-1.2-1.4l-.37-.33-.48.13a19.2,19.2,0,0,0-2.71.9l-.75-.43A17.87,17.87,0,0,0,20.26,1L20.13.5,19.66.34A6.34,6.34,0,0,0,17.85,0,6.34,6.34,0,0,0,16,.34L15.57.5,15.44,1a20.53,20.53,0,0,0-.58,2.8l-.74.43a19.68,19.68,0,0,0-2.72-.9l-.48-.13-.37.33a5.87,5.87,0,0,0-1.2,1.4,6.16,6.16,0,0,0-.61,1.74l-.1.49L9,7.49a20.24,20.24,0,0,0,2.1,1.87c0,.16,0,.32,0,.46s0,.29,0,.45A19.5,19.5,0,0,0,9,12.14Zm3.77-.89.6-.27,0-.65c0-.15,0-.62,0-.87s0-.73,0-.88l0-.65L12.41,8a11.7,11.7,0,0,1-1.74-1.47A3.38,3.38,0,0,1,11,5.83a3.7,3.7,0,0,1,.48-.6A12.08,12.08,0,0,1,13.58,6l.49.35.52-.29,2.16-1.24-.07-.61V4.15A13.88,13.88,0,0,1,17.09,2a3.46,3.46,0,0,1,.76-.11,3.38,3.38,0,0,1,.76.11A12.78,12.78,0,0,1,19,4.15v.06l-.06.6.51.31,2.16,1.24L22.12,6a12.08,12.08,0,0,1,2.15-.77,3.57,3.57,0,0,1,.48.6,3.35,3.35,0,0,1,.29.72A11.59,11.59,0,0,1,23.29,8l-.59.27,0,.65c0,.15,0,.62,0,.88s0,.72,0,.87l0,.65.6.27A11.59,11.59,0,0,1,25,13.08a4,4,0,0,1-.29.72,2.92,2.92,0,0,1-.48.6,12.08,12.08,0,0,1-2.15-.77l-.48-.36-.53.3L19,14.81l.06.61v.06a12.78,12.78,0,0,1-.41,2.19,3.46,3.46,0,0,1-.76.11,3.46,3.46,0,0,1-.76-.11,13.88,13.88,0,0,1-.41-2.19v-.06l.07-.6-.52-.31-2.16-1.24-.49.36a12.08,12.08,0,0,1-2.15.77,3.7,3.7,0,0,1-.48-.6,3.18,3.18,0,0,1-.28-.72A11.7,11.7,0,0,1,12.41,11.61Z"/><path class="cls-1" d="M17.85,13.9a4.08,4.08,0,1,0-4.08-4.08A4.09,4.09,0,0,0,17.85,13.9Zm0-6.32a2.24,2.24,0,1,1-2.23,2.24A2.24,2.24,0,0,1,17.85,7.58Z"/></g></g></svg>