<svg xmlns="http://www.w3.org/2000/svg" viewBox="0 0 24.27 41.76"><defs><style>.cls-1{fill:#ccc;}</style></defs><title>finance</title><g id="图层_2" data-name="图层 2"><g id="图层_1-2" data-name="图层 1"><path class="cls-1" d="M24.27,26.81V20H17A10.91,10.91,0,1,0,4.8,20H2.45v5H0v6.85H2.45v3.12H0v6.85H21.82V36.82h2.45V30H21.82V26.81ZM22.4,24.94H19.28V21.82H22.4Zm-5-3.12v3.12H14.29V21.82Zm-7.44,5v3.12H6.85V26.81Zm-4.53-15a4.22,4.22,0,0,1-.09-.94A4.08,4.08,0,0,1,5.44,10,5.35,5.35,0,0,1,6.37,7.7,5.75,5.75,0,0,1,7.69,6.37,5.4,5.4,0,0,1,10,5.44a4.08,4.08,0,0,1,.93-.09,4.22,4.22,0,0,1,.94.09,5.46,5.46,0,0,1,2.28.93A5.75,5.75,0,0,1,15.44,7.7,5.24,5.24,0,0,1,16.38,10a4.73,4.73,0,0,1,.09.93,4.91,4.91,0,0,1-.09.94,5.25,5.25,0,0,1-.94,2.27,5.7,5.7,0,0,1-1.32,1.32,5.34,5.34,0,0,1-2.28.94,4.91,4.91,0,0,1-.94.09,4.73,4.73,0,0,1-.93-.09,5.2,5.2,0,0,1-2.27-.94,5.44,5.44,0,0,1-2.26-3.59Zm6.4,6.44a7.43,7.43,0,0,0,3.61-1.51h0l1.15,1.14a9,9,0,0,1-4.76,2ZM6.36,16.78A7.43,7.43,0,0,0,10,18.29V19.9a8.93,8.93,0,0,1-4.76-2Zm6.06,5v3.12H9.31V21.82Zm0,10v3.07H9.31V31.84Zm-2.45,5V39.9H6.85V36.82Zm1.87,0H15V39.9H11.84Zm2.45-1.91V31.84h3.12v3.07Zm-2.45-5V26.81H15v3.12ZM17.92,16.6l-1.14-1.14a7.46,7.46,0,0,0,1.5-3.61h1.61A8.89,8.89,0,0,1,17.92,16.6ZM18.28,10a7.42,7.42,0,0,0-1.5-3.61h0l1.14-1.14h0a8.83,8.83,0,0,1,2,4.75ZM15.45,5a7.32,7.32,0,0,0-3.61-1.5V1.93a9,9,0,0,1,4.75,2ZM10,1.93V3.54A7.32,7.32,0,0,0,6.36,5L5.22,3.9A8.94,8.94,0,0,1,10,1.93ZM3.89,5.22,5,6.37A7.34,7.34,0,0,0,3.53,10H1.92A8.94,8.94,0,0,1,3.89,5.22Zm-2,6.63H3.53A7.37,7.37,0,0,0,5,15.46L3.89,16.61A9,9,0,0,1,1.92,11.85Zm2.4,10H7.44v3.12H4.32Zm-2.45,5H5v3.12H1.87Zm2.45,5H7.44v3.07H4.32ZM1.87,36.78h.58v0H5V39.9H1.87ZM19.94,39.9H16.83V36.82h3.11ZM22.4,35h-.58v0H19.28V31.84H22.4Zm-2.46-5H16.83V26.81h3.11Z"/><path class="cls-1" d="M10.49,11.85v1.39a3.09,3.09,0,0,1-.46-.12l-.06,0a3.12,3.12,0,0,1-1.17-.78L8,13.48a4,4,0,0,0,1,.7,3.74,3.74,0,0,0,1,.33,4.08,4.08,0,0,0,.52.07v1h1v-1a1.86,1.86,0,0,0,.33,0,3,3,0,0,0,1-.37,2,2,0,0,0,1-1.65,1.21,1.21,0,0,0,0-.19,2.26,2.26,0,0,0-.05-.47,1.91,1.91,0,0,0-1.18-1.32,4.4,4.4,0,0,0-.77-.27l-.33-.09V9l.25-.25.08,0a3,3,0,0,1,1,.6l.85-1.12a3.39,3.39,0,0,0-.86-.57,3.54,3.54,0,0,0-1-.33l-.33,0v-1h-1v1a4,4,0,0,0-.52.09,2.56,2.56,0,0,0-.88.41A2,2,0,0,0,8.2,9.41a.62.62,0,0,0,0,.13,1.51,1.51,0,0,0,.06.44,1.83,1.83,0,0,0,1.07,1.18,3.41,3.41,0,0,0,.63.24.42.42,0,0,0,.15,0,2.59,2.59,0,0,0,.37.11v.3Zm1,1.39V11.85h.11a.85.85,0,0,1,.22.09c.28.13.46.29.46.55a.74.74,0,0,1-.46.64h0Zm-1-4.65V9.9A1.8,1.8,0,0,1,10,9.67a.44.44,0,0,1-.22-.38A.57.57,0,0,1,10,8.81s.06-.05.09-.07A1.21,1.21,0,0,1,10.49,8.59Z"/></g></g></svg>