<svg xmlns="http://www.w3.org/2000/svg" viewBox="0 0 50.6 46.33"><defs><style>.cls-1{fill:#88b13e;}</style></defs><title>humanity</title><g id="图层_2" data-name="图层 2"><g id="图层_1-2" data-name="图层 1"><path class="cls-1" d="M49.75,40.18H48.38v-3.6a.85.85,0,0,0-.85-.85H43.46V17.61h4.07A.85.85,0,0,0,48,16.06L25.8.16a.87.87,0,0,0-1,0L2.58,16.06a.85.85,0,0,0-.32,1,.87.87,0,0,0,.82.6H7.14V35.73H3.08a.85.85,0,0,0-.86.85v3.6H.85A.85.85,0,0,0,0,41v4.44a.85.85,0,0,0,.85.86h48.9a.85.85,0,0,0,.85-.86V41A.85.85,0,0,0,49.75,40.18ZM5.74,15.9,25.3,1.9l19.56,14H5.74Zm36,1.71V35.73H38.63V17.61Zm-4.83,0V35.73H28.57V17.61Zm-10.07,0V35.73H23.74V17.61Zm-4.83,0V35.73H13.67V17.61ZM12,17.61V35.73H8.85V17.61Zm-8,19.83H46.67v2.74H3.93Zm45,7.18H1.71V41.88H48.89Z"/></g></g></svg>