<svg xmlns="http://www.w3.org/2000/svg" viewBox="0 0 60.16 45.66"><defs><style>.cls-1{fill:#88b13e;}</style></defs><title>lay</title><g id="图层_2" data-name="图层 2"><g id="图层_1-2" data-name="图层 1"><path class="cls-1" d="M59.87,33.83,49.73,11.37v0l-16-4.86s0-.1,0-.15a4,4,0,0,0-7.5-2.12L12.33,0,.37,22.78A2.41,2.41,0,0,0,0,24.05c0,3.09,6,4.71,11.88,4.71s11.88-1.62,11.88-4.71a2.31,2.31,0,0,0-.25-1h0L14.45,2.57,25.63,6c0,.12,0,.24,0,.37a4.06,4.06,0,0,0,3.33,4V37.79c-.48.05-.89.12-.92.12l-.77.13v1.65a26.67,26.67,0,0,0-6.64,1.87c-.4.22-1.31.73-1.31,1.61a.76.76,0,0,0,0,.15c.11,1,1.22,1.36,2.25,1.65a41.07,41.07,0,0,0,8.3.69,40.9,40.9,0,0,0,8.3-.69c1-.29,2.14-.68,2.26-1.65v-.15c0-.88-.91-1.39-1.31-1.61a26.55,26.55,0,0,0-6.64-1.87V38.07l-.74-.15a7.44,7.44,0,0,0-.95-.14V10.23a4.06,4.06,0,0,0,2.44-2l14.83,4.5L36.65,33.92h0a2.29,2.29,0,0,0-.24,1c0,3.09,6,4.71,11.87,4.71S60.16,38,60.16,35A2.34,2.34,0,0,0,59.87,33.83Zm-38-9.78c0,1-3.54,2.86-10,2.86s-10-1.89-10-2.86a.39.39,0,0,1,0-.18h0L2,23.72c.66-1,4.1-2.53,9.92-2.53C18.37,21.19,21.91,23.08,21.91,24.05ZM20.47,20.7a24.66,24.66,0,0,0-8.59-1.36,25.37,25.37,0,0,0-8.27,1.24L12.72,3.23Zm11,20.72A28.59,28.59,0,0,1,38,43.08l-.37.11a40.68,40.68,0,0,1-7.8.62,40.68,40.68,0,0,1-7.8-.62l-.37-.11a28.59,28.59,0,0,1,6.56-1.66l.85-.07V39.63a7.07,7.07,0,0,1,.76-.05c.27,0,.53,0,.77,0v1.73ZM29.67,8.54a2.21,2.21,0,1,1,2.2-2.2A2.21,2.21,0,0,1,29.67,8.54Zm19.5,6.06,7.68,17a24.59,24.59,0,0,0-8.57-1.35,25.33,25.33,0,0,0-8.21,1.22Zm-.89,23.22c-6.49,0-10-1.89-10-2.87s3.54-2.86,10-2.86,10,1.89,10,2.86S54.77,37.82,48.28,37.82Z"/></g></g></svg>