<svg xmlns="http://www.w3.org/2000/svg" viewBox="0 0 45.07 59.96"><defs><style>.cls-1{fill:#88b13e;}</style></defs><title>math</title><g id="图层_2" data-name="图层 2"><g id="图层_1-2" data-name="图层 1"><path class="cls-1" d="M30.6,36.66l3.27-13.21H35v1.33H36.8V23.45h1.11l3.68,14.4,3.48-7.63-.82-.41a3.25,3.25,0,0,1-.74-1.67,3.42,3.42,0,0,1,0-.59,1.08,1.08,0,0,1,.11-.57l.25-.35L43,23.45h1.65V21.6H42.53l-1-3.93A7,7,0,0,0,38.06,7.05V6.51H39V0H32.88V6.51h.94V7a7,7,0,0,0-3.64,10.73l-1,3.89h-2v1.85h1.56l-.81,3.18.25.35a1.81,1.81,0,0,1,.05,1.17,3.22,3.22,0,0,1-.73,1.66h0l-.83.4.35.86,2.76,5.62a13.74,13.74,0,0,0-9.73,4.59V25.38L0,60H20.06v-5.9H44V50A13.48,13.48,0,0,0,30.6,36.66ZM41.83,26.33a3.18,3.18,0,0,0-.22,1.22,5.89,5.89,0,0,0,.23,1.53,5.31,5.31,0,0,0,.9,1.81l-.66,1.44c-.92-3.62-3.63-14.19-3.83-15l1-1.13C39.88,18.65,41.69,25.77,41.83,26.33ZM34.72,1.85h2.44V4.67h-.94v5.7h-.55V4.67h-1ZM33.82,9v3.27h4.24V9A5.1,5.1,0,0,1,41,13.65a5,5,0,0,1-.14,1.23l-.63-2.45L39,13.72l-2.82,3.15,1.21,4.73H36.8V20.08H35V21.6h-.62l1.17-4.73-4-4.44-.43,1.68-.22.85a5.17,5.17,0,0,1-.16-1.31A5.11,5.11,0,0,1,33.82,9ZM29,30.87a5.23,5.23,0,0,0,.88-1.79,5.81,5.81,0,0,0,.23-1.53,3.21,3.21,0,0,0-.22-1.22c.14-.56,2-7.68,2.57-10.09l1,1.13-3.72,15C29.37,31.64,29.18,31.25,29,30.87ZM18.22,58.11h-15c1.31-2.26,12.35-21.3,15-25.87V44a13,13,0,0,0-1.5,6v4.07h1.5ZM40.05,46.63,41.44,46a11.51,11.51,0,0,1,.44,1.41l-1.51.26.32,1.82,1.47-.26q0,.39,0,.78v2.25H18.57V50c0-.27,0-.54,0-.82l1.47.26.32-1.82-1.51-.26a12.67,12.67,0,0,1,.44-1.4l1.39.67L21.52,45l-1.39-.67A10.93,10.93,0,0,1,21,43.08l1.14,1,1.23-1.38-1.12-1a10.83,10.83,0,0,1,1.12-.93l.8,1.27,1.57-1-.8-1.27a10.62,10.62,0,0,1,1.34-.58l.41,1.43,1.77-.51L28,38.72a11.74,11.74,0,0,1,1.45-.19V40H31.3V38.53a11.34,11.34,0,0,1,1.44.19l-.4,1.43,1.77.51.41-1.44a10.68,10.68,0,0,1,1.34.59l-.8,1.27,1.57,1,.8-1.29a11.38,11.38,0,0,1,1.14.94l-1.15,1,1.24,1.38,1.15-1a12.48,12.48,0,0,1,.83,1.22l-1.4.68Z"/><path class="cls-1" d="M30.38,41.49A8.78,8.78,0,0,0,21.57,50l0,1H39.22l0-1A8.78,8.78,0,0,0,30.38,41.49Zm-6.86,7.59a7,7,0,0,1,13.71,0Z"/><path class="cls-1" d="M15.56,55.47V41.79L7.62,55.47Zm-1.85-1.84H10.82c.73-1.26,1.64-2.82,2.89-5Z"/></g></g></svg>