<svg xmlns="http://www.w3.org/2000/svg" viewBox="0 0 51.4 47.95"><defs><style>.cls-1{fill:#ccc;}</style></defs><title>media</title><g id="图层_2" data-name="图层 2"><g id="图层_1-2" data-name="图层 1"><path class="cls-1" d="M8.58,12.71a4,4,0,0,1,3.53-4.43,3.85,3.85,0,0,1,.83,0l-.23-1.88a7.32,7.32,0,0,0-.81,0,5.86,5.86,0,0,0-5.17,6.49,4.34,4.34,0,0,0,.09.52l1.86-.19A3.41,3.41,0,0,1,8.58,12.71Z"/><path class="cls-1" d="M10,1.92a9.3,9.3,0,0,1,2.11,0L11.91,0A11.09,11.09,0,0,0,.07,12.32a10.71,10.71,0,0,0,.36,1.79l1.88-.2a9.07,9.07,0,0,1-.39-1.79A9.23,9.23,0,0,1,10,1.92Z"/><path class="cls-1" d="M11.08,5.15a6,6,0,0,1,1.47,0l-.23-1.89a7.71,7.71,0,0,0-1.44,0,8.42,8.42,0,0,0-7.43,9.32,7.53,7.53,0,0,0,.22,1.15l1.87-.19a5.79,5.79,0,0,1-.24-1.17A6.56,6.56,0,0,1,11.08,5.15Z"/><path class="cls-1" d="M45.22,26.48l0,0-4.67-2.84a6.36,6.36,0,0,0-3.91-.85c-.14-.18-2.93-2.68-2.93-2.68l1.47-1.92L37.6,20.1,51.4,7,38.07,2l-.39.65-7.26,11.8L33.7,17l-1.4,1.83-5-4.46a2.55,2.55,0,0,0-2-.46,8.71,8.71,0,0,0-4.86,3.16l-3.64-2.8a3.29,3.29,0,0,0,.23-1.21,3.25,3.25,0,0,0,0-.44,3.36,3.36,0,0,0-6.66.87,3.36,3.36,0,0,0,3.76,2.89,3.44,3.44,0,0,0,1.58-.64l3.63,2.8c-2.05,3-2.44,6.07-.86,7.29l5.55,3.62-1.43,1.86L20,29.67l-.51.42-11.06,9L19.65,48l6.51-14.41-2-1.24,1.41-1.83s3.07,2,3.2,2.08a6.51,6.51,0,0,0,1.93,3.72l3.76,4,.06.05a2.64,2.64,0,0,0,2,.46c2-.25,4.49-2.12,6.61-4.87A16,16,0,0,0,46,30.65C46.48,28.73,46.22,27.24,45.22,26.48ZM32.85,14l6-9.76L48,7.65l-10.51,10ZM14.93,14a1.51,1.51,0,0,1-2.12.28,1.51,1.51,0,0,1-.28-2.12,1.49,1.49,0,0,1,1-.57,1.45,1.45,0,0,1,1.11.3A1.5,1.5,0,0,1,14.93,14Zm4,31.06L11.39,39.1l8.76-7.17,3.67,2.31C23.28,35.42,19.7,43.36,18.94,45Zm.7-20.66c-.56-.43-.3-2.43,1.2-4.71l1.43,1.1,1.12-1.46L22,18.21a7,7,0,0,1,3.64-2.46.83.83,0,0,1,.6.09.82.82,0,0,1,.24.56c.13,1-.43,2.88-2,4.89C22.49,23.86,20.25,24.85,19.64,24.38Zm9.91,6.47,0,0-7.62-5a11.4,11.4,0,0,0,4-3.43,11.72,11.72,0,0,0,2.3-4.77l3,2.66L30,21.86,31.44,23l1.11-1.45L35,23.74l0,0a1,1,0,0,1,.34.7c0,.1,0,.21,0,.32a6.78,6.78,0,0,1-1.53,3.71C32.16,30.65,30.18,31.33,29.55,30.85Zm2.39,4a4.56,4.56,0,0,1-1.2-2.07,8,8,0,0,0,4.55-3.18,8.17,8.17,0,0,0,1.91-5,4.51,4.51,0,0,1,2.24.53,1,1,0,0,1,.31.7c.15,1.13-.49,3.29-2.25,5.57C35.22,34.36,32.68,35.43,31.94,34.86Zm9.77,0c-2,2.65-4.22,4-5.38,4.17a.91.91,0,0,1-.61-.08l-2.09-2.24A11.42,11.42,0,0,0,39,32.51a11.89,11.89,0,0,0,2.64-6.07L44.11,28a1.15,1.15,0,0,1,.27.89A11.37,11.37,0,0,1,41.71,34.81Z"/></g></g></svg>