<svg xmlns="http://www.w3.org/2000/svg" viewBox="0 0 52.26 28.31"><defs><style>.cls-1{fill:#88b13e;}</style></defs><title>medical</title><g id="图层_2" data-name="图层 2"><g id="图层_1-2" data-name="图层 1"><path class="cls-1" d="M52.25,12.75l-1.14.52a10.62,10.62,0,0,1-1.07.4L49.6,5l1,.21,1,.24-.18-4.4L50.92.88A14.6,14.6,0,0,0,42.57.41a12.66,12.66,0,0,0-8.22,7l-.05.1a9.78,9.78,0,0,0-1-.52,8.55,8.55,0,0,0-9.92,1.54,25.86,25.86,0,0,0-4.46,5.57l-.36-.24C14.64,11.32,6.44,8,.46,11.8L0,12.09.83,16.8l1-.66A9.69,9.69,0,0,1,4,15.09l.53,8.13c-.44-.13-.9-.29-1.37-.47l-1.38-.53,1,4.83.42.16a14.31,14.31,0,0,0,9.83.42,11.69,11.69,0,0,0,5.37-3.71q.18-.23.33-.45c.57-.86,1.2-1.95,1.86-3.12a11.93,11.93,0,0,0,6,1.76,8.12,8.12,0,0,0,5.23-2.35,21.46,21.46,0,0,0,4.06-5.49,23.32,23.32,0,0,0,2,1.31c5.59,3.29,9.63,3.84,13.91,1.92l.49-.21ZM2,14.18,1.79,12.9A11.55,11.55,0,0,1,9.94,12a23,23,0,0,1,7.71,3.23l.43.28-.58,1a22.09,22.09,0,0,0-7.43-3.28A11.86,11.86,0,0,0,2,14.18ZM16.72,18c-.44.79-.87,1.53-1.28,2.15a11.16,11.16,0,0,1-.68.89l.81-3.76c.4.23.78.47,1.14.71Zm-2.63-1.54-1.37,6.27a7.11,7.11,0,0,1-.78.4l.91-7.25C13.27,16.07,13.68,16.26,14.09,16.47ZM11.28,15.3l-1,8.37a10.37,10.37,0,0,1-1.53.17l.71-9A14.93,14.93,0,0,1,11.28,15.3Zm-3.47-.69-.73,9.15c-.28,0-.56-.08-.86-.13l-.57-8.92A10.43,10.43,0,0,1,7.81,14.61Zm11.57,4.55c-.72,1.29-1.41,2.5-2,3.4l-.27.38a10,10,0,0,1-4.61,3.15,12.57,12.57,0,0,1-8.3-.25c-.05-.29-.11-.55-.21-1.1a12.62,12.62,0,0,0,7.78.21,9.62,9.62,0,0,0,4.61-3.3c.16-.21.3-.4.42-.59.58-.87,1.16-1.91,1.76-3a43.44,43.44,0,0,1,3.53-5.66,20.08,20.08,0,0,1,2.39-2.61,7,7,0,0,1,8.17-1.25,8.41,8.41,0,0,1,.92.49c-.18.36-.36.7-.53,1L33,10a6.39,6.39,0,0,0-8.14,1.13,14.91,14.91,0,0,0-1.5,1.71A52.39,52.39,0,0,0,19.38,19.16Zm5-5.05.19-.27c.27-.35.55-.68.83-1l3.23,3.7a5.29,5.29,0,0,1-.59.44Zm1.79,3.49a7,7,0,0,1-3.42-1.07c.23-.37.46-.74.69-1.09Zm.41-5.86a5.3,5.3,0,0,1,1.38-.8l2.51,3.41c-.25.38-.5.71-.73,1Zm3.21-1.06a6,6,0,0,1,2.3.73l.11.09c-.28.5-.54,1-.8,1.38Zm2.46,6.11c-2.38,3.08-4.35,3.63-5.8,3.69a10.42,10.42,0,0,1-5.11-1.54c.19-.34.38-.68.58-1a8.49,8.49,0,0,0,4.42,1.3,5.84,5.84,0,0,0,4.27-2.35l.49-.6a50.8,50.8,0,0,0,4.66-8.1A14.44,14.44,0,0,1,37.27,5.8,10.33,10.33,0,0,1,43,2a12.8,12.8,0,0,1,6.88.25c0,.37,0,.62,0,1.18a14.49,14.49,0,0,0-6.64-.19,9.34,9.34,0,0,0-5.2,3.54,17,17,0,0,0-2,3.36A33.46,33.46,0,0,1,32.29,16.79ZM48.43,14a10.77,10.77,0,0,1-1.71.08l-.48-9.55A14.51,14.51,0,0,1,48,4.72Zm-3.35-.1a12.44,12.44,0,0,1-1.81-.48l.12-8.56.27-.08c.31-.08.63-.13,1-.18ZM41.75,5.59l-.1,7.18q-.6-.3-1.2-.66l.23-5.75A7.81,7.81,0,0,1,41.75,5.59ZM39,8.28,38.86,11l-.15-.12-.87-.65A15.22,15.22,0,0,1,39,8.28Zm11.66,7.94c-3.61,1.44-7,.85-12-2a18.86,18.86,0,0,1-2-1.43c.17-.33.33-.68.5-1l.55.46c4,3.16,9.21,4.29,12.93,3Z"/></g></g></svg>