<svg xmlns="http://www.w3.org/2000/svg" viewBox="0 0 37.86 56.67"><defs><style>.cls-1{fill:#88b13e;}</style></defs><title>science</title><g id="图层_2" data-name="图层 2"><g id="图层_1-2" data-name="图层 1"><path class="cls-1" d="M31.37,32.36Z"/><path class="cls-1" d="M28.84,16.72h0l-1.75-.89,3.41-6.63-.79-2,2-3.45A1.52,1.52,0,0,0,31.87,3a2,2,0,0,0-.31-1A4.6,4.6,0,0,0,28,0a1.66,1.66,0,0,0-1.41.89L24.62,4.34l-2.39.12L17.43,14l-1.14-.6-3.54,6.73s1.22,3.17,1.47,3.8l-1.37,2.58,5.33,2.67L19.5,26.8l3.72-.27,2.29-4.23c3.74,2.16,5.11,5.4,4.06,9.63v0a24.56,24.56,0,0,1-2.41,7.14,6.27,6.27,0,0,0-2.91,1.83l.12-3.78-6.83-2.87.28-1.06-5.76-2.5-.54,1L7.78,30.17l-.43.52L0,39.35l10.3,3.94L8,48.35l12.26.11a4.64,4.64,0,0,0-.1.85c-.08,1-.1,1.29-1.45,1.33l-13,.24L3.08,56.67l27.4,0-.68-5.32a6.29,6.29,0,0,0,5.4-6.22,7,7,0,0,0-.07-.92,82,82,0,0,0,2.12-8.1C39.2,27.06,36.53,20.9,28.84,16.72Zm-6.76,8-3.7.28-.94,1.65-2.08-1L16.24,24l-1.46-3.8c.22-.43,1.15-2.21,1.82-3.48v.1a4.66,4.66,0,0,0,6.59,4.24l.7.36Zm-.82-5.12a2.82,2.82,0,1,1,2.81-2.82A2.82,2.82,0,0,1,21.26,19.64Zm0-7.48a4.43,4.43,0,0,0-.9.09c1.2-2.38,2.77-5.48,3-6l2.33-.12,2.41-4.28a2.4,2.4,0,0,1,1,.36,2.56,2.56,0,0,1,.82.73L27.65,7.05l.8,2c-.25.5-2.05,4-3,5.78A4.65,4.65,0,0,0,21.26,12.16ZM12.89,33.09l2.74,1.18c-.27,1-.93,3.5-1.26,4.71l-3.84-1.43ZM10.83,46.52c.36-.8,1-2.05,1.21-2.56l6.85,2.62Zm-7.74-8c1.18-1.4,4.57-5.39,5.23-6.16l2.33,1L7.91,38.55l7.72,2.87,1.43-5.35,5.43,2.28c0,.94-.19,5.76-.25,7.54C20.21,45.11,5.13,39.33,3.09,38.56ZM6,54.82l1-2.12,11.82-.22c3-.08,3.17-2,3.25-3,.06-.86.13-1.37.41-1.51l1.15.44a6.27,6.27,0,0,0,4.38,2.94c.19,1.49.37,2.87.45,3.5Zm23-5.28a4.43,4.43,0,1,1,4.43-4.43A4.43,4.43,0,0,1,28.92,49.54ZM35.45,35.7l-.18.82c-.4,1.88-.76,3.55-1.19,5a6.27,6.27,0,0,0-4.71-2.69,33.55,33.55,0,0,0,2-6.49,12.74,12.74,0,0,0,.39-3A9.54,9.54,0,0,0,31,25.53a10.5,10.5,0,0,0-4.74-4.93l-1.44-.78a4.55,4.55,0,0,0,1.07-2.53L28,18.34c5.46,3,8.06,6.92,8.06,12.46A24,24,0,0,1,35.45,35.7Z"/></g></g></svg>